# xmcd CD database file
#
# Track frame offsets:
#	150
#	6977
#	21017
#	41140
#	48542
#	63655
#	89537
#	102617
#	118887
#
# Disc length: 1935 seconds
#
# Revision: 0
# Processed by: cddbd v1.5.1PL2 Copyright (c) Steve Scherf et al.
# Submitted via: CDex 1.51
#
DISCID=81078d09
DTITLE=Various Artista - SKABASH
DYEAR=1900
DGENRE=Ska
TTITLE0=OVER LIMIT - Let's Go to City
TTITLE1=ROCKSTEADY KITCHEN -  GET HAPPY
TTITLE2=DOBERMAN - DOBERMAN SKA
TTITLE3=GELUGUGU - Gangstarz
TTITLE4=PLANKTON SOUP - HEY YOU!
TTITLE5=BANGKHEAD'S STRIPPER - SPIKE
TTITLE6=SUPER STRAW - Nick The Violence
TTITLE7=La-Skals - Barfly
TTITLE8=横綱ICHIBAN - マッハSHOES
EXTD=
EXTT0=
EXTT1=
EXTT2=
EXTT3=
EXTT4=
EXTT5=
EXTT6=
EXTT7=
EXTT8=
PLAYORDER=
